<?xml version="1.0" encoding="utf-8"?>
<!-- Generator: Adobe Illustrator 23.0.5, SVG Export Plug-In . SVG Version: 6.00 Build 0)  -->
<svg version="1.1" baseProfile="tiny" id="Capa_1" focusable="false"
	 xmlns="http://www.w3.org/2000/svg" xmlns:xlink="http://www.w3.org/1999/xlink" x="0px" y="0px" viewBox="0 0 576 512"
	 xml:space="preserve">
<path fill="#FFFFFF" d="M549.66,124.08c-6.28-23.65-24.79-42.28-48.28-48.6C458.78,64,288,64,288,64S117.22,64,74.63,75.49
	c-23.5,6.32-42,24.95-48.28,48.6c-11.41,42.87-11.41,132.3-11.41,132.3s0,89.44,11.41,132.3c6.28,23.65,24.79,41.5,48.28,47.82
	C117.22,448,288,448,288,448s170.78,0,213.37-11.49c23.5-6.32,42-24.17,48.28-47.82c11.41-42.87,11.41-132.3,11.41-132.3
	S561.07,166.95,549.66,124.08z M232.15,337.59V175.18l142.74,81.21L232.15,337.59L232.15,337.59z"/>
</svg>
