<?xml version="1.0" encoding="utf-8"?>
<!-- Generator: Adobe Illustrator 23.0.5, SVG Export Plug-In . SVG Version: 6.00 Build 0)  -->
<svg version="1.1" id="Capa_1" xmlns="http://www.w3.org/2000/svg" xmlns:xlink="http://www.w3.org/1999/xlink" x="0px" y="0px"
	 viewBox="0 0 1712 728" style="enable-background:new 0 0 1712 728;" xml:space="preserve">
<style type="text/css">
	.st0{fill:#072257;}
	.st1{fill:#B5CD59;}
	.st2{opacity:0.5;}
</style>
<g>
	<path class="st0" d="M315.41,593.12c0.42,2.71,0.23,6.14-0.74,9.07c0,0-3.21,8.19,2.76,6.93c0,0,0.29,4.18-2,7
		c-2.61,3.21-1.7,8.82,7.62,8.12c0,0,5.71,0.94,9.73,2.2c5.66,1.77,11.54,2.69,17.47,2.7c2.86,0,8.5-2.43,4.1-5.29
		c-2.48-1.61-5.66-1.52-8.43-2.57c-12.14-4.63-17.92-5.07-14.25-28.72c0,0,0.54-2.47,1.09-6.58c-5.74,0.17-11.74,0.4-17.99,0.71
		C314.92,588.85,315.15,591.4,315.41,593.12"/>
	<path class="st0" d="M333.14,582.86c-6.27,0.09-12.46,0.23-18.55,0.41l0.13,2.48c0.02,0.3,0.04,0.62,0.06,0.94
		c6.24-0.3,12.25-0.54,17.99-0.71c0.01-0.11,0.03-0.21,0.04-0.33L333.14,582.86z"/>
	<path class="st1" d="M314.58,583.26c-131.8,1.51-220.09,25.21-220.09,25.21v10.44c88.65-22.83,164.43-29.5,220.28-32.22
		c-0.02-0.32-0.04-0.64-0.06-0.94L314.58,583.26z"/>
	<path class="st1" d="M417.57,584.59c-29.45-1.65-57.71-2.11-84.44-1.73l-0.33,2.8c-0.02,0.11-0.03,0.22-0.05,0.33
		c53.81-1.58,84.81,2.37,84.81,2.37c145.2,14.59,186.16,30.56,186.16,30.56v-10.44C533.22,590.12,417.57,584.59,417.57,584.59"/>
	<g class="st2">
		<g>
			<defs>
				<rect id="SVGID_1_" x="305.52" y="247.17" width="10.49" height="23.84"/>
			</defs>
			<clipPath id="SVGID_2_">
				<use xlink:href="#SVGID_1_"  style="overflow:visible;"/>
			</clipPath>
		</g>
	</g>
	<g class="st2">
		<g>
			<defs>
				<rect id="SVGID_3_" x="305.52" y="247.17" width="10.49" height="23.84"/>
			</defs>
			<clipPath id="SVGID_4_">
				<use xlink:href="#SVGID_3_"  style="overflow:visible;"/>
			</clipPath>
		</g>
	</g>
	<path class="st0" d="M433.79,252.82l1.25,4.14c0,0,3.07,2.76,7.76,3.46c-0.6,0.92-1.18,1.98-1.75,3.22
		c-3.91,1.17-7.99,4.5-10.18,12.63c0,0,14.03,4.73,20.07-12.01c0,0-0.23-0.1-0.64-0.25c1.12-1.59,2.22-3.61,3.25-6.15
		c1.53-0.99,3.09-2.28,4.68-3.97c0,0-3.46-3.75-8.6-4.46l1.31-3.11c0,0,8.01,0.78,9.41-1.51c0.55-0.9,2.55-1.04,4.91-0.91
		c-1.94,0.68-4.04,1.71-6.31,3.2c0,0,7.55,13.22,23.6,5.98l2.66,2.36c-0.48,2.34-0.71,6.89-0.4,10.07c0,0,18.72-2.28,14.79-23.9
		c0,0-6.95,0.83-11.35,6.83c-0.1-0.06-5.18-3.02-6.19-4.29c-1.01-1.28-9.49-3.32-10.63-2.88c-1.14,0.44-11.08,1.56-11.08,1.56
		s-15.02,2.6-16.49,2.93c-0.76,0.17-3.64,1.31-6.24,2.38c0.38,0.33,0.58,0.53,0.58,0.53C436.69,250.33,435.22,251.7,433.79,252.82"
		/>
	<path class="st0" d="M166.12,196.44c0.06,0.04,0.13,0.08,0.19,0.12C166.25,196.53,166.18,196.48,166.12,196.44"/>
	<path class="st0" d="M333.52,278.05c-0.48,0.44-1.68,1.09-2.79,2.01c-1.07,0.88-0.64,2.51,0.26,4.33c1.81-0.6,3.57-0.79,5.2-0.73
		c-0.52-1.96-1.06-4.32-1.41-5.29C334.59,277.83,333.93,277.67,333.52,278.05"/>
	<g>
		<path class="st0" d="M1593.28,229.71l-2.84-4.34c-0.33-0.8-0.65-1.52-0.98-2.16c-0.33-0.64-0.67-1.2-1.04-1.69
			c-0.37-0.49-0.76-0.91-1.19-1.26c-0.43-0.35-0.9-0.64-1.42-0.87c0.93-0.33,1.77-0.73,2.52-1.2c0.75-0.47,1.4-1.03,1.94-1.68
			c0.54-0.64,0.95-1.39,1.24-2.23c0.29-0.84,0.43,0.85,0.43-0.21c0-1.09-0.16-2.1-0.48-3c-0.32-0.91-0.79-1.71-1.43-2.41
			c-0.63-0.7-1.43-1.28-2.37-1.74c-0.94-0.46-2.02-0.79-3.24-1c-0.42-0.05-0.9-0.09-1.43-0.14c-0.53-0.04-1.2-0.06-2-0.06h-6.74
			c-0.38,0-0.73,0.13-1.07,0.38c-0.33,0.26-0.5,0.7-0.5,1.33v24.06c0,0.13,0.03,0.24,0.1,0.34c0.06,0.1,0.18,0.18,0.34,0.23
			c0.16,0.06,0.38,0.11,0.65,0.15c0.27,0.04,0.61,0.06,1.01,0.06c0.41,0,0.75-0.02,1.02-0.06c0.27-0.04,0.48-0.09,0.64-0.15
			c0.15-0.06,0.27-0.14,0.34-0.23c0.07-0.1,0.11-0.21,0.11-0.34v-10.86h2.82c0.96,0,1.79,0.14,2.47,0.43
			c0.68,0.29,1.28,0.69,1.79,1.2c0.51,0.51,0.95,1.13,1.31,1.84c0.37,0.71,0.72,1.49,1.06,2.34l2.92,4.83
			c0.06,0.2,0.14,0.36,0.23,0.49c0.09,0.13,0.22,0.23,0.38,0.3c0.16,0.07,0.38,0.13,0.65,0.16c0.27,0.03,0.62,0.05,1.04,0.05
			c0.49,0,0.88-0.02,1.18-0.05c0.29-0.03,0.52-0.08,0.69-0.15c0.16-0.06,0.27-0.15,0.32-0.25c0.05-0.1,0.07-0.21,0.07-0.34
			c0-0.13-0.03-0.31-0.1-0.55C1593.66,230.71,1593.51,230.29,1593.28,229.71 M1583.89,216.83c-0.81,0.27-1.77,0.4-2.88,0.4h-4.12
			v-8.04h3.55c0.83,0,1.51,0.02,2.02,0.07c0.51,0.05,0.98,0.13,1.38,0.25c1.31,0.38,2.24,0.99,2.79,1.85
			c0.55,0.86,0.83,1.91,0.83,3.15c0,0.77-0.13-1.16-0.38-0.51c-0.25,0.66-0.65,1.22-1.19,1.7
			C1585.37,216.19,1584.7,216.56,1583.89,216.83"/>
		<g>
			<path class="st0" d="M1581.31,195.03c-13.5,0-24.44,10.94-24.44,24.44c0,13.5,12.29,24.44,25.79,24.44
				c13.5,0,23.1-10.94,23.1-24.44C1605.76,205.98,1594.82,195.03,1581.31,195.03 M1581.51,239.9c-11.28,0-20.42-9.14-20.42-20.42
				c0-11.28,9.14-20.42,20.42-20.42c11.28,0,20.42,9.14,20.42,20.42C1601.93,230.75,1592.79,239.9,1581.51,239.9"/>
			<path class="st0" d="M742.19,209.45l7.1-22.72c0,0-17.37-13.36-52.12-9.16c-1.84,0.22-3.7,0.4-5.54,0.6
				c-8.44,0.91-37.63,7.12-41.27,49.75c0,0-2.84,29.82,41.66,44.5c0,0,51.13,11.83,47.81,46.39c-3.31,34.56-33.61,36.34-44.5,36.87
				c0,0-32.26,1-45.01-30.72l-3.75,24.14c0,0,15.15,20.35,64.38,11.36c0,0,38.81-8.99,45.44-38.82c0,0,20.38-50.38-51.65-65.62
				c-5.71-1.21-11.22-3.35-16.17-6.44c-8.52-5.33-18.15-14.92-18.41-31.13c0,0-1.38-31.94,32.46-33.69
				C702.62,184.76,732.72,180.58,742.19,209.45"/>
			<path class="st0" d="M898.87,295.61c0,0,8.25-58.99-57.27-62.21c-18.51-0.91-36.72,6.39-48.62,20.59
				c-8.62,10.28-15.54,25.57-15.6,48.15c0,0-1.58,45.07,44.34,56.9c0,0,31.24,11.36,71-11.36l0.47-12.78
				c0,0-23.67,33.61-71.95,11.36c0,0-24.14-12.09-18.46-50.03L898.87,295.61z M842.07,240.7c37.19,0.11,35.03,46.39,35.03,46.39
				h-74.32C803.25,274.21,809.43,240.6,842.07,240.7"/>
			<path class="st0" d="M1043.25,236.62h-23.12l0.4,21.12c0,0-15.62-26.59-45.92-24.42c0,0-54.91-3.98-58.7,70.81
				c0,0-1.42,53.49,52.31,57.75c0,0,33.37,4.26,52.31-28.88v94.2h22.72C1043.25,427.2,1037.09,361.69,1043.25,236.62 M979.14,354.7
				c-49.43,5.21-40.98-60.51-40.98-60.51c3.69-54.48,39.31-50.65,39.31-50.65c46.41,0,42.59,50.65,42.59,50.65
				C1021.47,353.83,979.14,354.7,979.14,354.7"/>
			<path class="st0" d="M1097.21,236.91h-19.69v85.68c0,0-4.93,40.24,46.2,39.29c0,0,25.09,2.84,44.02-25.09v22.72h19.88v-122.6
				h-20.83v80.47c0,0-2.95,32.19-37.27,34.02c-2.58,0.14-5.17-0.14-7.75-0.16c-8.04-0.05-24.56-7.83-25.5-33.39
				C1094.84,279.53,1097.21,236.91,1097.21,236.91"/>
			<path class="st0" d="M1286.58,233.14c-5.18-0.55-64.4,0.05-69.58,57.11c-0.61,6.72-0.83,13.36-0.03,20.06
				c2.84,23.64,15.86,49.78,58.56,51.61c0.62,0.03,1.24,0.06,1.86,0.11c7.39,0.57,65.53,3.16,73.99-54.65
				c0.51-3.47,0.62-6.99,0.39-10.48c-1.09-16.44-9.17-59.72-63.87-63.64C1287.46,233.22,1287.02,233.19,1286.58,233.14
				 M1286.99,357.62c-48.79,3.31-49.43-58.18-49.43-58.18c-0.65-61.18,41.96-60.82,49.57-60.27c0.99,0.07,1.98,0.11,2.96,0.15
				c36.94,1.52,38.57,49.62,38.59,57.23c0,0.78,0.03,1.57,0.07,2.34C1331.84,361.46,1286.99,357.62,1286.99,357.62"/>
			<path class="st0" d="M1383.12,236.91h25.09c0,0-8.52,54.44,0,123.07h-25.09C1383.12,359.98,1392.59,308.39,1383.12,236.91"/>
			<path class="st0" d="M1395.67,191.94c0,0-12.54-0.95-12.54,13.25c0,0,0.95,11.83,12.54,11.83c0,0,12.54-0.01,12.54-12.55
				C1408.21,204.48,1409.16,191.94,1395.67,191.94"/>
			<path class="st0" d="M1552.58,353.36c0,0-7.57,1.42-8.99-17.99v-65.8c0,0-0.95-32.31-35.5-36.51c0,0-30.77-5.8-54.44,16.22V262
				c0,0,12.09-19.42,44.97-19.42c21.3,0,24.96,23.68,24.96,23.68s4.86,23.67-12.65,24.14c0,0-73.84,2.84-68.16,42.6
				c0,0,0.47,39.76,54.91,26.98c0,0,4.47,0.95,25.91-17.51c0,0,0.13,20.14,31.37,15.28
				C1554.95,357.75,1565.84,354.78,1552.58,353.36 M1523.58,334.42c-11.96,15.15-22.78,17.04-22.78,17.04
				c-1.6-0.47-34.48,9.74-37.21-18.94c-2.74-28.68,27.14-33.09,27.14-33.09c30.97-3.75,32.85-6.67,32.85-6.67V334.42z"/>
		</g>
	</g>
	<path class="st0" d="M171.74,247.97c-7.34-0.32-15.99,4.14-20.12,12.54c0,0,19.02,12.19,26.31-11.41l3.1-0.79l21.21,0.74
		l17.08,6.86l8.99,2.9l9.41,3.31l12,2l2.86,0.18c3.24-0.78,6.13-0.36,8.53,0.53l5.41,0.34c0,0-0.1-0.07-0.27-0.18l7.34-1.04
		c0,0,1.63,0.16,3.58,0.24c-3.08,2.55-5.63,6.96-6.27,14.48c0,0,14.58,2.15,19.19-13.93c3.33,3.6,6.52,6.69,7.51,6.48
		c0.98-0.21,2.82,0.82,4.7,1.97c-1.88,0.65-4.29,1.81-6.34,3.81c0.04-0.23,0.09-0.45,0.13-0.68c0,0-13.19-3.23-18.22,9.44
		c-4.67-3.88-9.88-7.32-15.03-8.86v4.29c0,0,5.18-1.12,14.34,6.59c-0.5,1.74-0.88,3.71-1.07,5.98c0,0,3,0.44,6.7-0.58
		c3.02,3.25,6.34,7.35,9.94,12.56c0,0-8.25-1.97-13.76-2.72c0.23-2.29,0.13-4.91-0.44-7.91c0,0-3.31-1.02-6.6,0.6
		c-1.77-4.38-6.13-10.5-16.59-9.58c-0.45-1.63-1.1-3.36-2.01-5.21c0,0-3.25,1.32-6.02,4.35c-0.86-0.73-1.99-1.54-3.34-2.19
		c0.58-1.99,0.95-4.34,0.99-7.16c0,0-11.14-0.26-15.22,9.3c-0.14,0.11-0.28,0.21-0.42,0.32c0,0,0.06,0.11,0.18,0.29
		c-0.77,2.03-1.24,4.46-1.24,7.41c0,0,5.18,0.9,9.78-1.9c1.81,0.18,3.9-0.11,6.26-1.15c-1.43,4-1.25,9.43,3.02,16.57
		c0,0,6.21-3.23,8.22-10.38c2.66,2.26,6.49,4.04,11.96,4.06c-0.38,0.79-0.72,1.7-1.01,2.72h0l-22.52,8.12l-7.09-4.41l-0.16-3.41
		c0.39-1.28,0.72-2.67,0.97-4.2c0,0-2.27-0.53-5.27-0.26c-2.54-2.57-6.39-4.64-12.12-4.13c-0.6-3-2.04-6.35-4.77-9.99
		c0,0-15.69,10.09-1.08,26.5c0,0,2.73-2.15,4.56-6c0.54,0.36,1.11,0.7,1.72,1c-1.45,2.56-2.51,2.96-2.85,7.49
		c0,0,10.57,4.45,16.47-5.05l2.29,3.14l5.26,0.47c0,0-2.12,1.18-5.06,2.54c-5.08,2.35-12.63,7.27-16.1,5.72
		c-3.55-1.59-8.53-5.73-11.62-8.45c-1.9-3.71-3.48-9.89-12.19-10.42l-4.36,2.96c0.66-1.49,1.2-3.18,1.59-5.12
		c4.02,0.55,17.55,1.21,14.07-15.55c0,0-14.61,1.6-15.35,12.11c-2.33-0.07-6.56,0.25-10.2,2.87l-1.68-0.96l9.68-7.38l-2.95-1
		l-9.83,7c0,0-29.46-18.82-32.64-18.01c-3.18,0.82,0,4.1,0,4.1s26.08,13.11,31.63,16.07c0,0-6.95-1.98-8.08,0
		c-0.72,1.26-4,3.65-6.31,5.24c-5.11-2.1-13.86-3.04-21.29,9.37c0,0,8.16,2.59,17.28-2.23c-1.22,2.62-2.02,6.01-2.07,10.43
		c0,0,6.39,0.47,11.72-3.9c-0.02,0.45-0.05,0.89-0.05,1.36c0,0,10.17,3.75,15.56-5.42c1.6-0.68,3.27-1.68,4.83-3.12
		c0.76,1.81,1.95,0.88,3.83,2.63c-4.13,0.07-10.4,1.61-13.38,9.58h-1.37c0,0-28.86,11.73-41.2,9.8l1.53,3.16
		c0,0,32.82-3.44,39.79-8.09c-0.1,0.65-0.19,1.32-0.26,2.04c0,0,7.94,1.26,13.68-4.84c9.15-0.3,19.2,0.82,19.2,0.82
		s25.31-4.52,27.4-8.32c2.08-3.8,24.61-6.59,26.26-7.83c0.17-0.13,0.74-0.23,1.59-0.3c-0.14,2.57-0.06,2.59,0.32,6.13
		c0,0,7.88,1.33,11.47-6.29c11.25,0.14,25.47,0.71,25.47,0.71l1.29,1.71c0,0,3.88,3.88,0,6c0,0-5.02-1.81-2.13,1.99
		c2.44,3.2,6.31,5.07,10.33,4.95c1.38-0.04,2.74-0.3,3.8-0.94c0,0,3.51,6.21,1.32,18.88c-0.73,4.24-1.18,8.53-1.16,12.83
		c0.01,3.15-0.02,7.46-0.15,13.11c0,0-35.29,14.12-4.94,32.12c0,0,10.59,2.12,2.47,8.82c0,0-4.23,4.59,7.06,37.76
		c0,0,6.35,22.59-2.12,32.12c0,0-16.95,17.06,4.41,28c0,0-3.01,15.06,0,29.17c0,0,0.89,10.24-5.82,17.65c0,0-3.79,3.52-2.62,29.09
		l0.01,0.18c6.1-0.18,12.28-0.32,18.55-0.41l0.01-0.13c0.54-5.03,0.95-11.62,0.63-18.85c0,0,9.18-11.29,9.88-28.94
		c0,0,7.29-12.71,7.71-33.18c0,0,3.24-9.88,2.88-24.71c0,0,6.71-24.35-0.35-39.53c0,0,0.71-21.53-10.24-29.29l-0.35-13.06
		c0,0,8.06-4.12,0.94-7.53c0,0-1.53-1.41-0.47-4c0.74-1.81,0.72-1.1-1.41-2.35c-4-2.35-1.65-12.12-1.65-12.12s7.06-24.23,4.94-38
		c-0.04-0.28-0.08-0.57-0.12-0.85c4.08-0.55,16.81-0.73,13.49-18.95c0,0-5.91-2.29-10.28,2.53c-0.79-1.26-1.24-1.12-2.38-6.55
		c-0.04-0.17-0.08-0.33-0.12-0.49l19.45,1.07l0.21,0.06c3.48,3.13,8.87,5.84,16.69,4.63l2.32,0.64l28.01,7.43l35.34,1.71
		l26.51,14.97l21.74,3.47v-2.92c0,0-18.38-1.57-19.69-2.27c-1.31-0.69-17.88-9.66-17.88-9.66l-5.23-4.31c1.56-0.27,3.22-0.71,5-1.37
		l3.07,0.36l4.72-5.29c0.15,0.49,0.42,0.95,0.8,1.39c-2.7,1.23-5.54,3.46-8.38,7.14c0,0,12.66,11.03,25.83-3.32
		c0,0-3.28-3.42-8.18-4.66c-0.29-3.67-0.91-5.28-2.22-8.01c3.81,1.46,8.91,1.82,15.03-1.41c-0.38,0.44-0.76,0.9-1.14,1.39
		c0,0,12.66,11.03,25.83-3.32c0,0-10.56-11.04-22.16-0.67c-2.16-2.99-11.2-13.39-25.31-1.84c-3.09-1.63-6.65-3.68-9.98-7.3h12.37
		v-2.79l-9.13,1.25l11.98-7.21l12.91-13.2l-0.09-2.85l-15.67,14.9l-13.08,7.11l-9.28-5.53l-7.21-5.3l-1.76-0.1
		c-2.03-2.04-5.1-3.83-9.68-5c0,0-0.59,1.83-0.56,4.44l-0.18-0.01l-6.04-1.95c3.18-0.87,6.67-2.78,10.31-6.34
		c0,0-5.03-5.95-12.47-5.68c3.15-0.88,6.6-2.79,10.21-6.31c0,0-1.48-1.74-4-3.3c-4.45,0.84-8.24-0.43-11.03-2.05
		c-3.47,0.79-7.33,3-11.39,7.68c0,0,5.11,5.01,12.67,4.57c-3.21,0.97-6.73,3.18-10.4,7.42c0,0,1.19,1.17,3.28,2.33h-3.16
		l-10.48-4.05l-4.32-9.15l-2.31,2.26c-2.55-1.74-5.98-3-10.54-2.97c-1.55-3.91-7.2-14.01-23.2-10.43c0,0,1.19,8.03,8.02,11.61
		c-0.45,0.03-0.9,0.06-1.35,0.08c-1.39-1.06-3.13-2.05-5.3-2.91c0,0-0.6,1.29-0.95,3.28c-8.67,0.53-16.13,1.14-19.53,2.8
		c-4.78,2.33-16.15,10.48-16.15,10.48l0.62-15.9c1.13,1.38,2.61,2.78,4.52,4.18c0,0,2.63-3.16,3.04-7.82
		c2.34-0.08,5.1-0.64,8.33-1.96c2.16,1.1,4.76,2.06,7.83,2.81l0.73,1.66l-1.78,2.84l6.07-2.84l2.49-8.19l2.09-3.33l0.24-0.36
		c2.03,0.25,4.36,0.31,7.04,0.09c0,0-0.04-3.47-2.39-7.03l8.18-12.23l-2.91,1.27l-7.62,3.62v-0.36c1.77-2.14,4.22-6.42,2.82-12.69
		c2.57-1.33,5.39-2.75,8.27-4.12c-0.32,0.57-0.64,1.16-0.95,1.79c0,0,14.4,8.28,24.7-8.81c0,0-0.02-0.01-0.05-0.03
		c1.84-0.05,3.9-0.12,6.1-0.21c1.56,2.72,4.3,6.07,8.51,6.66c-2.06,1.1-5.37,3.37-7.25,7.21c0.5,0.29,0.78,0.49,0.78,0.49
		c-0.63,1-1.26,1.89-1.89,2.73c-0.61,2.95-0.37,6.57,1.43,10.98c-3.95,1.32-15.77,6.82-9.17,24.05c0,0,14.11-4.43,11.19-20.99
		c2.42-1.33,13.51-8.48,7.05-24.42c3.35-0.28,7.47-2.25,12.47-7.14c0,0-0.01-0.02-0.02-0.04c1.08,0.03,2.13,0.07,3.16,0.12
		c-0.16,3.01,0.49,6.64,2.43,10.99c0,0,7.14-2.67,9.71-10.25c0.3-0.17,0.35-0.41,0.21-0.69c1.02-3.51,1.06-8.01-0.92-13.7
		c0,0-8.97,2.42-11.03,10.92c-1.61-0.01-3.38-0.03-5.25-0.04c-2.97-3.71-10.06-9.04-23.07-0.51c0,0,0.06,0.19,0.18,0.51
		c-2.28,0.03-4.23,0.07-5.66,0.13c0,0,26.94-23.83,26.71-28.1c-0.11-2.02,0.39-4.78,0.95-7.14c5.07-1.54,11.62-6.09,13.54-19.14
		c0,0-13.7-3.39-18.43,11.67c-0.11-1.39-0.3-2.86-0.61-4.44c0,0-1.9,0.19-4.27,1.21l-5.85-1.21l-0.77-1.44
		c2.55-4.62,4.61-13.27-5.23-24.28c0,0-9.83,7.21-4.37,18.89c-5.15-1.09-12.35,0.25-19.66,10.92c0,0,0.51,0.4,1.43,0.91
		c-1.16,2.66-1.66,6.06-0.5,10.25c-1.6-0.69-3.48-1.15-5.68-1.25c0.91-2.74,1.44-6.2,1.33-10.56c1.13-1,2.26-1.84,3.23-2.43
		c1.61-0.98,6.92-4.55,6.92-4.55s1.64-3.65,1.31-4.96c-0.33-1.31-2.62,1.27-2.62,1.27s-6.24,4.63-8.07,5.52
		c-0.94,0.46-2.36,2.41-3.52,4.2c-2.01,0.39-4.78,1.41-7.01,4.03c0.9-1.52,1.67-3.37,2.21-5.64c0.25,0.72,0.52,1.45,0.82,2.2
		c0,0,18.24-18.35,10.06-32.58c0,0-15.17,2.95-13.16,20.94c-4.48,0.97-12.16,5.07-10.18,21.91c0,0,5.02-0.21,8.89-4.88
		c-1.89,3.29-3,8.31-2.1,15.98c0,0,2.04-0.08,4.51-1.35c3.84,3.42,10.54,6.19,21.73,2.82c0,0-0.2-0.99-0.78-2.4
		c2.51-2.78,5.88-8.32,3.67-16.6c3-0.51,6.37-1.94,9.88-4.91v2.55c0,0-2.84,8.91-3.29,10.04c-0.44,1.13-3.49,6.1-3.49,6.1
		s-1.19,2.49-2.47,5.03c-5.07,1.52-13.74,6.62-10.23,23.54c-2.16,1.22-4.32,3.17-6.33,6.16l-10.04,4.2
		c-0.29-0.87-0.65-1.77-1.09-2.71c2.45-2.25,4.83-5.81,5.19-11.27c0.22-0.18,0.43-0.37,0.64-0.57c1.66,0.64,3.56,1.2,5.75,1.62
		c0,0,1.22-4.71-1-9.82c0.62-2.21,1-4.8,1.02-7.86c0,0-3.14-0.29-6.64,1.04c-2.23-1.62-5.15-3.05-8.97-4.1c0,0-1.04,2.8-0.75,6.38
		c-0.45,0.29-0.9,0.61-1.35,0.97c0.24-1.72,0.34-3.65,0.29-5.79c1.45-3.2,2.35-7.61,2.04-13.66c0,0-14.43-1.1-13.45,18.99
		c-1.72,3.29-2.68,8.2-1.83,15.5c0,0,4.15-0.17,7.8-3.71c0,2.68,0.54,5.83,1.89,9.54c0,0,0.76-0.22,1.88-0.78
		c0.05,0.38,0.11,0.78,0.18,1.18c-1.58,2.27-2.85,5.63-1.82,10.1l-28.18,14.07l-1.64-35.68c2.18-0.23,4.59-0.79,7.28-1.79
		c0,0-1.71-6.2-7.48-9.07l-0.02-1.31c1.87,1.42,4.33,2.52,7.51,2.71c0.08,0.14,0.14,0.28,0.22,0.42c0,0,0.27-0.13,0.73-0.39
		c2.97,0.01,6.53-0.75,10.8-2.71c0,0-0.95-2.49-3.38-4.95c1.73-3.19,2.84-7.41,2.08-12.87l1.3-0.45l1.26-2.02
		c0,0,1.87,4.14,2.92,5.45c1.06,1.31,1.34,1.33,1.34,1.33s0.23-2.32,0-3.27c-0.23-0.95,0-3.17,0-3.17l-2.81-6.42l2.81-4.56
		l6.73-4.68l-0.83-1.71c3.77-2.56,7.83-8.08,7.22-19.98c0,0-15.94-1.23-13.19,22.19c0,0,0.14-0.01,0.39-0.04l-1.66,1.72l-2.92-6.99
		v-9.11l-6.46-8.31c2.87-4.72,4.42-11.9,0.38-22.38c0,0-20.61,5.97-9.05,30.1c0,0,2.86-1.15,5.72-3.99l1.46,1.3
		c-4.8,2.19-16.55,9.82-7.18,29.37c0,0,6.06-2.44,9.38-8.99l-1.26,5.69c-3.32,1.67-10.75,6.62-9.99,17.03
		c-1.14,0.03-2.35,0.15-3.63,0.38l-0.42-33.32c2.7-4.44,4.13-10.89,0.75-19.87c0,0-0.11,0.03-0.29,0.1l0.21-5.81l-2.07-0.22v6.8
		c-3.44,1.63-9.88,5.75-10.75,13.89c-1.63-2.07-3.97-4.14-7.31-6.06c0,0-1.64,2.37-2.2,5.77c-3.06-1.94-7.49-3.15-13.86-2.04
		c-2.84-3.22-6.67-6.47-11.79-9.62c0,0-12.2,15.86,4.13,31.25l-0.29,0.07l-12.1-4.28l-7.51-5.43h-3.03l3.03,2.98l8.88,6.42
		l13.27,4.91l1.84,1.66c-5.17-3.33-12.42-4.88-21.85,0.17c-0.05-1.25-0.25-2.56-0.64-3.94c1.39-1.03,2.81-2.27,4.24-3.75
		c0,0-3.76-4.19-9.54-5.52c-0.13-0.15-0.25-0.3-0.39-0.46c0,0-0.13,0.1-0.36,0.31c-5.02-0.9-11.42,0.48-18.18,8.33
		c-5.8-10.18-5.8-10.18-5.8-10.18l-2.64,1.54l4.18,4.68c0,0,10.24,18.72,19.03,29.01c-0.59-0.05-1.17-0.1-1.77-0.13
		c0,0-2.41,19.65,16.48,25.13c0.32,0.98,0.76,2.32,1.27,3.8l-4.81-0.92c-1.16-1.04-2.56-1.99-4.24-2.78l-8.81-5.78l-2.35-1.35
		c1.84-0.42,3.83-1.08,6.02-2.09c0,0-2.37-6.08-8.74-8.97c1.29-4.46,1.96-12.83-7.44-19.88c0.54-0.03,1.08-0.06,1.65-0.11
		c0,0-0.52-16.73-20.63-16.53c0,0-0.96,15.25,15.1,16.59c-1.72,3.53-4.26,11.5,3.15,18.46c-2.38,0.11-5.05,0.64-8.05,1.73
		l-8.38-5.74h-2.2c-2.91-1.61-7.06-2.6-12.39-0.66l-5.2-0.53l-7.76,0.81c-1.3-3.8-4.32-8.07-10.49-12.35c0,0-8.63,14.75,8.87,25.49
		c0,0,3.11-4.17,2.33-10.12l5.24,0.57l3.22,0.27c-1.73,4.76-3.6,15.63,12.06,21.78c0,0,3.98-8.55-1.64-16.58
		c2.49,0.02,5.41-0.74,8.76-2.79c0.01,0,0.03-0.01,0.04-0.01c0.6-0.36,7.54,2.78,7.54,2.78l1.79,0.98c2.07,3.4,6.17,7.75,13.52,7.43
		l8.57,4.74c-1.1-0.18-2.28-0.3-3.53-0.36c0,0-0.27,2.22,0.29,5.1c-3.56,1.17-7.44,3.8-9.37,9.53c-0.23-0.13-0.5-0.26-0.78-0.4
		c1.98,1,3.24,1.96,3.24,1.96c-1.39,1.86-2.75,3.41-4.08,4.7c-0.42,2.35-0.5,5.12-0.08,8.41c0,0,3.32-0.22,6.93-2.24
		c-0.35,5.01,1.73,11.29,11.42,16.4c0,0,0.68-1.12,1.29-2.96c1.58,1.97,12.78,14.86,28.09,4.63c0,0-2.1-3.35-5.78-6.17
		c0.96-0.15,1.99-0.39,3.1-0.72c1.84,1.87,3.47,3.87,3.47,3.87s2.36,2.89,5.32,6.29l-4.7-1.05l-2.39,1.8l-12.6,1.95l-15.56-1.95
		l-9.59-0.62c0,0,5.23-17.91-16.56-20.71c0,0-0.25,1.28-0.17,3.21l-4.09-4.28c-5.68,0.15-9.35-3.5-9.35-3.5
		c0.68-1.7,1.43-3.14,2.22-4.39l-2.85-3.19l-11.65-8.88l-28.27-25.04l-3.6,3.35c-0.05-0.04-0.11-0.07-0.16-0.11
		c0.63,0.46,1.21,0.96,1.74,1.48c-0.07-0.07-0.13-0.13-0.2-0.2l24.44,20.53l12.03,8.98c-5.08-0.5-11.77,0.95-20.11,6.93
		c-3.65-3.14-9.59-5.08-19.08-1.4c0,0,5.1,16,24.45,10.28c0,0-0.63-2.88-2.67-5.85c4.47,3.11,13.31,6.98,24.45,0.3l7.39,12.14
		l-14.54-3.84l-20.49-0.55L171.74,247.97z M411.54,172.75c0.66,0.02,1.65,0,2.83-0.17v4.94l-7.17,7.51l-0.78-3.46
		C408.53,179.67,410.54,176.84,411.54,172.75 M390.41,182.92c0,0,5.7-10.3,5.89-12.18c0.2-1.88,3.08-6.04,2.21-7.17
		c-0.88-1.13,2.85-0.92,2.85-0.92l1.96,1.02c-2.14,1.78-4.07,4.43-4.9,8.36l-2.11-1.29c0,0-0.78,9.25-2.61,11.17
		c-0.36,0.38-0.58,1.05-0.69,1.87c-1.22,0-2.51,0.15-3.88,0.52L390.41,182.92z M387.33,197.31c2.21,0.1,4.71-0.23,7.45-1.31
		c0.25,1.04,0.4,2.23,0.27,3.36c-0.26,2.18-6.7,6.45-10.31,8.69c-1.48-0.36-3.16-0.57-4.96-0.42
		C382.63,205.87,385.83,202.75,387.33,197.31 M347.26,227.66c0,0,0.4-0.23,1.08-0.61c0.81,2.14,2.14,4.5,4.17,7.08l-1.56,2.21
		c-2.84-1.23-6.52-2.02-11.34-1.98c0,0-0.06,0.6,0,1.56h-1.49l0.62,6.56c-2.57-1.88-6.15-3.47-11.05-4.5L347.26,227.66z
		 M320.5,241.77l4.09-2.16c-0.04,1.89,0.22,4.81,1.74,7.89c-0.61,0.31-1.23,0.64-1.88,1.01c-1-1.43-2.3-2.9-3.99-4.36
		c0,0-0.02,0.02-0.06,0.06L320.5,241.77z M333.19,140.9l3.2,3.91l0.46,11.1c0,0-1.63-0.93-2.88-1.83c0.79-3.54,0.75-7.9-0.79-13.2
		L333.19,140.9z M332.97,157.27c0.68,0.23,1.44,0.41,2.27,0.41c2.68,0,2.87-0.09,2.87-0.09l-0.74,2.5l1.75,8.74
		c0,0-2.1,0.13-2.28-3.01c-0.18-3.14-1.46-1.78-1.61-3.18c-0.13-1.2-2.01-4-2.54-4.76C332.8,157.68,332.89,157.48,332.97,157.27
		 M178.36,304.2c-1.1,0.4-2.22,0.94-3.29,1.67c-0.19-0.03-1.7-0.25-3.79-0.08c2.16-2.2,4.46-4.16,5.64-3.95
		c0.64,0.11,1.48,0.41,2.38,0.79C178.97,303.11,178.65,303.63,178.36,304.2 M192.86,322.85h-0.09c1.27-1.87,2.34-4.23,3.08-7.2
		c3.09,1.45,7.26,2.01,12.9,0.76l9.14,5.34L192.86,322.85z M389.2,276.86c0.31,0.17,0.63,0.34,0.96,0.51
		c-1.61,0.7-3.2,1.79-4.7,3.37c-0.12-0.08-0.22-0.16-0.35-0.24c0,0-1.3,1.77-2.23,4.59c-1.07-0.58-4.83-2.42-9.3-2.23l0.01-0.02
		l8.33-6.5C383.95,276.94,386.35,277.17,389.2,276.86 M316.04,229.12l0.31,9.71l-18.74-8.19c0,0-1.47-5.69-2.78-13.25
		c0.55,2.16,1.47,4.55,2.92,7.19c0,0,4.49-2.09,7.01-7.16c-0.34,4.97,1.43,10.88,9.87,14.6
		C314.63,232.03,315.32,230.91,316.04,229.12 M300.46,235.06c-1.48,0.86-3.43,2.28-5,4.38c-1.78-2.75-4.88-5.75-10.19-6.98
		c0.39-0.71,0.74-1.47,1.04-2.3l7.91,1.86L300.46,235.06z M315.66,150.38v11.55c-0.62-2.5-1.72-5.22-3.41-8.15
		C313.37,152.88,314.56,151.76,315.66,150.38 M308.5,182.92c0,0,5.25-3.58,7.17-10.51v9.68c-1.1,0.28-2.25,0.63-3.45,1.07
		c0,0,0.87,3.17,3.45,6.04v2.32c-3.67-1.14-8.65-0.97-15.35,2.14c0,0,3.76,9.73,15.35,9.64v10.95c-1.54-2.28-4.08-4.33-8.12-5.81
		c0,0-0.54,0.9-1.15,2.36c0.12-3.17-0.56-6.95-2.58-11.44c0,0-10.23,3.56-9.57,14.44c-0.93-6.13-1.61-13-1.33-18.92
		c1.3-0.3,2.66-0.7,4.11-1.24c0,0-0.81-2.91-3.17-5.67c0.11-0.43,0.23-0.85,0.36-1.25c0.24-0.73,0.47-1.47,0.69-2.21
		c2.5,2.87,6.78,5.32,13.99,6.22c0,0,0.82-4.32-1.28-9C307.9,182.13,308.18,182.52,308.5,182.92 M304.2,158.15
		c-2.67,4.34-4.08,10.86,0.84,19.62c-1.66-1.87-4-3.61-7.25-4.96c1.8-8.91,2.52-16.26,2.52-16.26l-0.21-1.32
		C301.22,156.22,302.58,157.2,304.2,158.15 M284.63,170.16c0.48,0.26,0.96,0.52,1.46,0.78c0,0,5.17-8.46,1.75-19.24
		c2.44,1.05,5.64,1.5,9.81,0.8c0.14,0.2,0.29,0.41,0.46,0.61l-1.99,14.14c0,0-0.49,1.84-1.17,4.55c-0.9-0.27-1.85-0.51-2.87-0.72
		c0,0-0.34,1.15-0.46,2.88L284.63,170.16z M260.44,193.13c-2.44-1.35-5.32-2.46-8.74-3.2c-6.14-6.5-14.06-14.69-18.43-22.34
		c-0.24-0.42-0.47-0.83-0.7-1.23c2.24,1.44,6.21,3.37,11.17,3.2c0.5,3.65,2.52,7.83,7.31,12.35c0,0,3.62-3.4,4.75-8.92
		c4.05,5.29,14.84,15.88,32.03,7.38c0,0-1.31-2.93-3.98-6.16h0l5.16,3.31c0,0,1.36,0.8,3.14,1.86c0.16,0.58,0.37,1.16,0.62,1.74
		c-0.36,1.67-0.69,3.33-0.97,4.87c-3.72-2.91-9.83-4.58-19.56-0.07c0,0,4.53,11.7,18.95,9.3c0.44,7.75,1.37,26.68,4.04,33.61
		c0,0-6,3.36-6.21-1.18c-0.22-4.54-1.93-16.45,1.88-16.57c1.89-0.06-0.42-0.72-3.22-1.36c-0.81-3.8-3.12-8.04-8.22-12.23
		c0,0-3.87,4.07-4.38,9.82c-1-0.2-2.06-0.42-3.13-0.67c-0.24-0.67-0.52-1.36-0.84-2.05c2.27-4.74,3.52-12.52-4.64-21.59
		C266.45,182.99,261.44,186.89,260.44,193.13 M262.63,219.76c0.66,1.92,1.38,3.92,2.01,5.63c-0.71,0.29-1.43,0.66-2.13,1.11
		c-0.43-2.12-1.38-4.96-3.48-7.57L262.63,219.76z M263.86,247.19c-3.48,0.05-7.4,1.36-11.66,4.76c1.33-4.42,1.96-12.29-6.45-19.33
		c0.77-1.38,1.41-2.99,1.86-4.84c0.35-0.56,0.68-1.16,0.99-1.8c2.36,1.9,5.72,3.33,10.49,3.7c-2.21,2.91-3.78,7.34-3.7,14.08
		c0,0,8.23,0.44,13.34-6.91c0.64,1.88,1.31,3.8,1.99,5.47C268.63,243.57,266.35,245.18,263.86,247.19 M273.38,240.86
		c-1.14-1.39-1.88-2.42-1.84-2.66c0.08-0.42-0.47-1.79-1.31-3.97c1.22-2.56,2.09-5.8,2.37-9.92c0,0-2.55-0.39-5.69,0.35
		c-0.32-1.07-0.63-2.19-0.93-3.37c-0.07-0.28-0.14-0.55-0.21-0.81l5.14,1.18l4.43,3.31c-1.24,3.46-1.35,8.19,0.93,14.61
		C275.36,239.93,274.39,240.35,273.38,240.86 M276.91,221.93l-10.39-3.15l-1.24-0.24c-0.37-1.53-0.65-2.71-0.84-3.61
		c2.69,0.45,5.71,0.67,9.15,0.55c0,0,0.06-2.37-0.72-5.69l2.25,0.54c0.36,2.75,1.63,5.74,4.4,8.78
		C278.6,219.87,277.7,220.8,276.91,221.93 M285.15,260.94c0.48-0.29,0.94-0.45,1.12-0.51c0.12,0.13,0.24,0.27,0.35,0.41
		C286.16,260.86,285.66,260.89,285.15,260.94 M313.79,286.03c-1.37,4.36-4.5,1.64-9.07,3.72c-4.57,2.08-8.13,4.57-7.1,6.87
		c1.02,2.3-2.9,6.95-3.4,6.27c-0.23-0.32-3.83-5.08-9.15-10.51c2.28-0.97,4.64-2.56,6.64-5.16c-0.09,2.41,0.23,5.2,1.13,8.45
		c0,0,14.76-3.14,13.08-20.37c1.13,0.59,2.02,0.87,2.37,0.44C309.47,274.31,315.15,281.67,313.79,286.03 M301.76,269.03
		c-4.25,0.01-8.11-2.94-11.16-6.34c0.1-0.48,0.21-0.97,0.29-1.49c0,0-0.68-0.16-1.77-0.27c-3.27-4.13-5.27-8.29-5.27-8.29
		s-1.41-1.52-3.27-3.57c2-0.86,4.2-2.02,6.62-3.57c1.67,0.27,3.56,0.33,5.71,0.13c-0.46,3.39,0.25,7.63,3.17,12.87
		c0,0,13.03-6.23,7.6-21.89l12.79,6.21l-0.02,4.86c-1.54,0.69-3.54,1.76-5.38,3.3c-1.08-1.5-2.53-3.06-4.46-4.68
		c0,0-5.28,14.82,2.82,21.07c0,0,1.08-0.86,2.17-2.4c1.66,0.34,3.41-0.01,4.8-1.93l-0.04,12.69
		C316.35,275.75,311.77,269,301.76,269.03 M331.2,351.29c0,0-1.65,5.88-4.82-19.77c0,0,0.71-13.29-4.47-18.12
		c0,0,13.76,0.12,14.35,8.35C336.84,330,335.67,341.76,331.2,351.29 M342.01,299.45c-0.29-0.48-0.57-1.01-0.82-1.62
		c-0.44-1.07-1.18-4.95-1.18-4.95s-0.09-0.24-0.26-0.67c-1.37,1.12-2.74,1.94-4.1,2.55c-0.04,0.69-0.58,1.39-2.35,2.08
		c-1.96,0.76-3.06,1.58-6.14,1c-3.85-0.72-4.24-4.55-6.2-1.53c-0.84,1.29-1.45,2.38-1.9,3.29l-3.97,2.57c0,0-0.44-25.85,29.05-32.37
		c3.71-0.82,7.17-1.38,10.4-1.75c0.21,4.12,2.21,9.3,9.69,13.04c0,0,4.18-7.18-0.06-13.56c3.19,0.02,6.05,0.24,8.58,0.59
		c1.08,2.33,2.94,5.07,6.04,6.89l-0.76,0.74l-6.92,7.09l-1.01,0.61c-1.92,0.59-3.88,1.65-5.73,3.43l-4.8,2.88l-0.91,0.45
		c-0.57-4.64-3.67-16.23-20.55-13.97c0,0,0.27,3.58,2.47,7.34l0.87,1.1c2.15,0.75,3.49,1.64,3.49,1.64
		c-0.32,0.48-0.64,0.93-0.96,1.37c2.49,2.18,6.01,3.91,11.03,4.31l-7.45,3.67l-5.37,3.8L342.01,299.45z M360.68,300.91
		c0,0,0.32,0.78,1.02,1.94l-16.38,0.02l-0.13-1.83l11.94-7.81l2.69,0.18c-0.26,0.53-0.51,1.08-0.75,1.65c0,0,14.26,7.03,23.38-8.48
		c-1.19,4.89-0.81,12.01,7.31,18.74c-0.47,0.43-0.95,0.89-1.42,1.39c0,0,0.92,1,2.57,2.14l-2.6,0.22
		C386.12,304.29,378.61,292.31,360.68,300.91 M431.5,319.41c-0.56-0.17-10.88-1.81-14.6-2.23c-0.53,0.31-1.09,0.62-1.73,0.94
		c-7.28,3.65-4.25-1.76-4.25-1.76s0.37-0.09,0.95-0.24c-7.31-2.02-21.21-3.43-21.21-3.43l4.39-1.65c3.63,1.35,8.5,1.82,14.1-1.11
		c1.48,0.62,3.19,1.12,5.2,1.45c0,0,3.33-14.87-12.97-19.08c0,0-1.12,3.52-0.46,7.58c-2.57,0.17-5.42,1.11-8.47,3.26
		c2.17-3.91,4.57-11.27-2.25-18.46c4.86,2.29,12.1,3.67,17.46-4.17c0,0-0.38-0.29-1.05-0.71c3.43-0.55,6.62-1.05,6.62-1.05
		l11.57,4.1l1.88,1.53c0.75,3.89,3.21,8.48,9.94,11.57c-2.19,0.98-4.29,1.88-6.54,5.29c0.76-5.34-3.79-13.74-15.43-18.83
		c0,0-7.59,14.81,9.87,24.4c-0.47,2.68-0.45,2.86,0.3,6.63c0,0,6.31,0.58,9.67-1.5c0.49,1.03,2.22,4.27,5.61,6.81
		C435.52,319.17,431.74,319.48,431.5,319.41 M462.72,315.97l-5.23,1.13c-2.53-4.46-8.76-8.49-21.4-3.26
		c3.85-3.07,7.05-8.66,4.46-18.76c0.41-1.29,1-3.8,0.67-6.64l6.82,4.45l-5.18,0.41v7.62c0,0,14.39,7.48,20.25,13.39L462.72,315.97z"
		/>
	<path class="st1" d="M341.04,214.84c0,0-3.2-1.03-7.15-0.57c0.84-4.04,0.3-9.18-3.43-15.42c0,0-13.67,6.87-6.74,21.43
		c-1.74,2.46-3.14,5.84-3.88,10.49C319.85,230.78,336.23,234.44,341.04,214.84"/>
	<path class="st1" d="M466.97,234.65c0,0,18.39,3.12,18.66-18.85C485.63,215.8,468.88,214.56,466.97,234.65"/>
	<path class="st1" d="M424.17,256.31c0.38,0.2,0.73,0.4,1.07,0.61c2.64-0.5,5.51-1.74,8.55-4.1l-0.1-0.31
		C430.27,254.95,427.05,256.03,424.17,256.31"/>
	<path class="st1" d="M410.9,251.79c12.17-14.04,22.65-6,25.6-3.19c0.36-0.15,0.73-0.3,1.11-0.46c-2.68-2.31-14.36-10.81-28.56,2.49
		c0,0,1.9,2.35,5.16,4.23c0.35-0.08,0.7-0.15,1.04-0.2C412.51,253.36,410.9,251.79,410.9,251.79"/>
	<path class="st1" d="M425.24,256.92c-0.34-0.21-0.69-0.42-1.07-0.61c2.88-0.27,6.11-1.36,9.52-3.8l0.09,0.31
		c1.44-1.12,2.91-2.48,4.41-4.14c0,0-0.2-0.21-0.58-0.53c-0.38,0.15-0.75,0.31-1.11,0.46c-2.94-2.81-13.42-10.85-25.6,3.19
		c0,0,1.61,1.57,4.35,2.88c-0.34,0.05-0.69,0.12-1.04,0.2C417,256.49,420.79,257.76,425.24,256.92"/>
	<path class="st1" d="M397.31,224.97c0.12-0.31,0.27-0.58,0.42-0.87c-3.23-1.89-16.04-7.9-27.57,7.5c0,0,14.02,12.19,26.46-4.27
		c0.11-0.52,0.23-1.02,0.39-1.5L397.31,224.97z"/>
	<path class="st1" d="M397.73,224.11c-0.14,0.29-0.29,0.56-0.42,0.87l-0.31,0.86c-0.16,0.48-0.28,0.98-0.39,1.5
		c0.63-0.84,1.27-1.73,1.89-2.73C398.51,224.6,398.23,224.4,397.73,224.11"/>
	<path class="st1" d="M334.88,292.04c-0.02-1.67-2.52-4.88-3.9-7.66c-3.56,1.18-7.28,3.95-10.52,9.59c0,0,7.21,4.33,15.19,0.78
		C335.72,293.83,334.89,292.92,334.88,292.04"/>
	<path class="st1" d="M337.08,286.41c1.38,2.67,2.27,4.78,2.68,5.8c1.43-1.17,2.86-2.65,4.24-4.52c-0.17-0.15-0.35-0.29-0.5-0.44
		l-2.03-2.57c-1.45-0.51-3.26-0.95-5.27-1.02C336.51,284.85,336.82,285.91,337.08,286.41"/>
	<path class="st1" d="M343.99,287.68c0.32-0.44,0.64-0.89,0.96-1.37c0,0-1.35-0.89-3.49-1.64l2.03,2.57
		C343.64,287.39,343.82,287.54,343.99,287.68"/>
	<path class="st1" d="M336.19,283.65c-1.63-0.06-3.4,0.13-5.2,0.73c1.38,2.77,3.88,5.99,3.9,7.66c0.01,0.87,0.84,1.79,0.78,2.71
		c1.35-0.6,2.73-1.43,4.09-2.55c-0.41-1.02-1.3-3.13-2.68-5.8C336.82,285.91,336.51,284.85,336.19,283.65"/>
	<path class="st0" d="M454.91,200.61c0,0,17.71,5.86,21.29-15.81C476.21,184.8,459.84,181.04,454.91,200.61"/>
	<path class="st0" d="M413.47,190.8c0,0,17.71,5.86,21.29-15.81C434.76,174.98,418.39,171.23,413.47,190.8"/>
	<path class="st0" d="M445.14,202.25l-7.37,11.91l-6.9,5.87l-6.54,5.7c-0.26-1.28-0.62-2.63-1.12-4.06c0,0-9.84,2.65-11.27,12.17
		l-1.04,0.52l-3.22,4.48l0,2.44l4.14-3.62c0.2,2.51,0.92,5.37,2.38,8.65c0,0,6.13-2.29,9.07-8.65c5.03,1.18,12.71,1.05,19.57-10.33
		c0,0-4.81-4.1-11.52-2.56c2.81-2.12,9.15-7.75,8.52-8.4c-0.78-0.8,9.78-14.17,10.08-15.03c0.3-0.86,7.29-10.46,7.29-10.46v-3.33
		l-7.29,6.99l-3.98,6.39c2.5-4.5,3.38-11.3-3.91-20.13c0,0-13.58,9.87-2.06,26.44C439.98,207.24,442.88,205.52,445.14,202.25"/>
	<path class="st0" d="M379.45,259.45c0,0,7.04-15.25-11.1-24.09L379.45,259.45z"/>
	<path class="st0" d="M379.45,259.45l-11.1-24.09C368.35,235.37,358.97,251.5,379.45,259.45"/>
	<path class="st0" d="M439.86,223.4c0,0,1.63,0.98,4.2,1.62c-1.66,3.12-2.49,7.48-1.57,13.58c0,0,13.33-1.19,15.08-15.85
		c2.44-1.62,4.88-4.06,7.17-7.68C464.73,215.08,449.89,204.13,439.86,223.4"/>
	<path class="st0" d="M453.04,285.3c0,0,6.5-0.05,12.03-4.6c0.15,0.41,0.31,0.82,0.49,1.25c0,0,15.28-7.85,9.7-24.76
		c0,0-3.27,3.42-5.49,4.82C463.97,262.54,451.74,265.96,453.04,285.3"/>
	<path class="st0" d="M373.58,312.69c0,0-10.1,16.15,14.43,21.67C388.01,334.35,392.71,315.64,373.58,312.69"/>
	<path class="st1" d="M422.44,344.59c0,0,6.78-15.36-11.51-23.9C410.93,320.7,401.83,336.98,422.44,344.59"/>
	<path class="st1" d="M451.41,351.47c0,0,6.78-15.36-11.51-23.89C439.9,327.57,430.8,343.86,451.41,351.47"/>
	<path class="st0" d="M482.83,359.66c0,0,5.37-16.61-15.86-22.27C466.97,337.38,460.9,355.97,482.83,359.66"/>
	<path class="st1" d="M495.22,345.72c0,0-1.09,16.76,19.02,18.48C514.24,364.21,517.19,345.79,495.22,345.72"/>
	<path class="st1" d="M488.04,331.72c0,0,12.64,11.06,26.24-3.85C514.28,327.87,501.46,314.32,488.04,331.72"/>
	<path class="st0" d="M482.05,282.11c-2.33,0.07,9.36,10.37,25.59-4.85C507.64,277.26,493.97,264.58,482.05,282.11"/>
	<path class="st1" d="M259.59,314.08c0,0-18.53,2.13-12.67,23.3C246.93,337.38,263.36,333.91,259.59,314.08"/>
	<path class="st0" d="M228.31,327.09c0,0-18.49-2.46-17.97,19.5C210.34,346.6,227.12,347.24,228.31,327.09"/>
	<path class="st1" d="M290.48,312.91c0,0-18.53-0.87-12.67,20.3C277.81,333.21,294.24,332.73,290.48,312.91"/>
	<path class="st0" d="M190.71,223.09c0,0-10.8-15.21-26.52,0.13C164.18,223.22,175.15,235.94,190.71,223.09"/>
	<path class="st1" d="M240.21,215.95c0,0-9.46-16.08-26.44-2.13C213.77,213.83,223.61,227.43,240.21,215.95"/>
	<path class="st0" d="M174.86,266.51c0,0-10.75,9.91,2.07,25.5C176.93,292.01,192.31,282.84,174.86,266.51"/>
	<path class="st1" d="M242.77,270.16c0,0,12.12,9.75,25.64-0.36c0,0-2.77-3.31-7.29-4.99l-8.53-0.53
		C249.57,265.01,246.26,266.76,242.77,270.16"/>
	<path class="st1" d="M252.59,264.28l8.53,0.53C258.72,263.93,255.83,263.51,252.59,264.28"/>
	<path class="st1" d="M219.99,238.15l0.56,0.58c3.38-0.09,7.47-1.53,11.93-5.87c0.14-0.78,0.32-1.52,0.53-2.21
		C228.71,236.03,224,237.85,219.99,238.15"/>
	<path class="st1" d="M213.53,230.97c7.25-9.29,15.94-6.64,19.79-4.77c-4.77-2.41-13.78-5.07-19.9,4.64L213.53,230.97z"/>
	<path class="st1" d="M220.54,238.73l-0.56-0.58c4.01-0.3,8.72-2.12,13.02-7.49c-0.21,0.69-0.39,1.42-0.53,2.21
		c1.33-1.3,2.7-2.84,4.08-4.7c0,0-1.26-0.96-3.24-1.96c-3.85-1.87-12.54-4.52-19.79,4.77v0l-0.11-0.13
		c-0.79,1.25-1.54,2.7-2.22,4.39C211.2,235.24,214.86,238.88,220.54,238.73"/>
	<path class="st0" d="M167.84,287.82c0,0,7.02-21.31-16.22-24.15C151.62,263.67,149.45,279.51,167.84,287.82"/>
	<path class="st0" d="M177.58,261.76c0,0-0.1,12.04,12.62,15.31c1.33-0.74,2.59-1.26,3.79-1.58c-4.56-4.13-5.06-9.56-5.06-9.56
		c21.63-9.23,25.16,7.91,25.71,12.45c5.89-0.22,13.11-3.02,19.46-12.75c0,0-7.94-6.05-17.04-3.38c-3.08-5.67-11.97-15.45-34.25-4.96
		c0,0,1.03,2.69,3.79,5.5C184.22,261.98,181.27,261.57,177.58,261.76"/>
	<path class="st0" d="M195.86,329.27c0,0-18.6-1.39-16.82,20.51C179.04,349.78,195.84,349.45,195.86,329.27"/>
	<path class="st1" d="M162.51,334.78c0,0-18.6-1.39-16.82,20.51C145.69,355.29,162.48,354.96,162.51,334.78"/>
	<path class="st1" d="M134.37,341.32c0,0-18-4.9-20.4,16.94C113.97,358.26,130.51,361.13,134.37,341.32"/>
	<path class="st1" d="M144.28,326.57c0,0-6.04-17.65-25.47-7.4C118.81,319.18,125.72,334.48,144.28,326.57"/>
	<path class="st0" d="M148.75,290.49c0,0-10.9-16.61-24.73-1.45C124.02,289.04,134.93,303.32,148.75,290.49"/>
	<path class="st1" d="M145.13,272.7c0,0,3.03-20.17-17.5-20.55C127.62,252.15,126.36,270.79,145.13,272.7"/>
	<path class="st1" d="M205.79,282.64c-12.65,7.72-19.29-2.67-19.29-2.67c1.68-1.23,3.25-2.09,4.7-2.67
		c-0.35-0.07-0.68-0.15-1.01-0.24c-1.42,0.79-2.9,1.83-4.46,3.21c0,0,8.74,11.21,22.44,0.99c0,0-0.32-0.5-0.93-1.21
		c-1.29-0.02-2.5-0.12-3.62-0.29C205.07,281.25,205.79,282.64,205.79,282.64"/>
	<path class="st1" d="M186.5,279.97c0,0,6.65,10.39,19.29,2.67c0,0-0.72-1.39-2.17-2.86c-4.38-0.65-7.47-2.32-9.63-4.29
		c-1.2,0.32-2.46,0.84-3.79,1.58c0.33,0.09,0.66,0.17,1.01,0.24C189.75,277.88,188.18,278.75,186.5,279.97"/>
	<path class="st0" d="M162.38,242.83c0,0-2.09-19.52-24.42-13.52C137.96,229.31,141.48,246.63,162.38,242.83"/>
	<path class="st0" d="M195.82,171.47c0,0-0.87-17.41-20.97-13.22C174.86,158.25,177.11,173.78,195.82,171.47"/>
	<path class="st0" d="M211.73,183.11c0,0,9.22-17.41-11.56-24.73C200.17,158.37,193.29,174.74,211.73,183.11"/>
	<path class="st1" d="M220.76,153.91c0,0-2.22-19.58-23.51-13.88C197.25,140.03,200.82,157.42,220.76,153.91"/>
	<path class="st0" d="M232.75,135.71c0,0-11.04,10.8,0.91,23.73C233.67,159.44,246.94,148.6,232.75,135.71"/>
	<path class="st1" d="M255.71,148.35c0,0,9.57-14.23-7.75-22.45C247.96,125.89,240.52,139.43,255.71,148.35"/>
	<path class="st1" d="M271.54,124.15c0,0-1.41-17.08-20.07-12.7C251.47,111.45,254.1,126.67,271.54,124.15"/>
	<path class="st1" d="M297.31,132.05c0,0,4.19-19.57-18.58-20.93C278.73,111.12,276.57,129.01,297.31,132.05"/>
	<path class="st1" d="M309.49,121.8c0,0,9.33-15.52-9.76-23.37C299.73,98.43,292.63,113.12,309.49,121.8"/>
	<path class="st1" d="M350.66,105.2c0,0-14.23,7.98-5.37,24.75C345.29,129.96,361.82,122.57,350.66,105.2"/>
	<path class="st1" d="M386.64,123.62c0,0-17.52,7.98-8.67,24.75C377.97,148.37,395.64,138.85,386.64,123.62"/>
	<path class="st1" d="M424.12,132.38c0,0-20.06,0.57-18.86,18.22C405.26,150.6,424.5,151.34,424.12,132.38"/>
	<path class="st1" d="M464.45,164.07c0,0-16.86,5.92-11.06,20.57C453.39,184.64,469.92,180.05,464.45,164.07"/>
	<path class="st0" d="M170.64,189.35c-0.27-4.53,6.62-15.21-11.1-23.66C159.54,165.69,153.29,180.39,170.64,189.35"/>
	<path class="st1" d="M173.4,205.92c-20.39,8.12-27.5-8.7-27.5-8.7c9.48-4.72,15.95-3.54,20.22-0.77
		c-4.38-2.87-10.99-4.15-21.85-0.48c0,0,7.45,19.23,31.58,11.91c-1.95-1.79-3.69-6.04-7.21-9.42
		C172.1,201.83,173.4,205.92,173.4,205.92"/>
	<path class="st1" d="M166.31,196.57c0.2,0.13,0.39,0.27,0.58,0.41C166.7,196.84,166.5,196.7,166.31,196.57"/>
	<path class="st1" d="M166.31,196.57c-0.06-0.04-0.13-0.08-0.19-0.12c-4.27-2.77-10.74-3.94-20.22,0.77c0,0,7.11,16.82,27.5,8.7
		c0,0-1.3-4.09-4.77-7.47c-0.54-0.52-1.12-1.01-1.74-1.47C166.7,196.84,166.51,196.7,166.31,196.57"/>
	<path class="st1" d="M214.42,278.9c-3.07,0.36-5.8,0.34-8.23,0.05c0.41,0.4,0.76,0.78,1.05,1.11c2.22,0.04,4.7-0.14,7.49-0.62
		c0,0-0.02-0.4-0.1-1.07c-0.08,0-0.17,0.01-0.25,0.01C214.42,278.71,214.42,278.9,214.42,278.9"/>
	<path class="st1" d="M188.93,265.93c0,0,0.5,5.43,5.06,9.56c5.72-1.53,9.92,1.25,12.21,3.46c2.43,0.29,5.16,0.3,8.23-0.05
		c0,0-0.01-0.19-0.04-0.51c0.08,0,0.17-0.01,0.25-0.01C214.09,273.83,210.56,256.69,188.93,265.93"/>
	<path class="st1" d="M206.19,278.95c-1.76-0.21-3.38-0.55-4.84-1.01c0.89,0.56,1.65,1.21,2.27,1.84c1.12,0.17,2.32,0.26,3.62,0.29
		C206.96,279.73,206.61,279.35,206.19,278.95"/>
	<path class="st1" d="M196.14,276.35c0.66,0.02,1.29,0.09,1.88,0.22c-0.68-0.35-1.33-0.72-1.93-1.12
		C196.12,275.77,196.13,276.08,196.14,276.35"/>
	<path class="st1" d="M201.36,277.94c1.46,0.46,3.08,0.81,4.84,1.01c-2.29-2.21-6.48-4.99-12.21-3.46c2.17,1.96,5.25,3.63,9.63,4.29
		C203,279.14,202.25,278.5,201.36,277.94 M196.14,276.35c-0.01-0.27-0.02-0.57-0.05-0.9c0.6,0.4,1.25,0.77,1.93,1.12
		C197.43,276.44,196.8,276.36,196.14,276.35"/>
	<path class="st0" d="M420.49,313.06c-1.39,1.11-6.48,2.5-8.61,3.05c2.06,0.57,3.59,0.95,4.15,0.98c0.22,0.02,0.52,0.04,0.88,0.08
		C422.38,314.01,422.1,311.77,420.49,313.06"/>
	<path class="st0" d="M411.88,316.11c-0.58,0.15-0.95,0.24-0.95,0.24s-3.02,5.41,4.25,1.76c0.64-0.32,1.2-0.63,1.73-0.94
		c-0.35-0.04-0.65-0.07-0.88-0.09C415.47,317.06,413.94,316.68,411.88,316.11"/>
	<g>
		<path class="st0" d="M772.51,499.02h11.97v2.16c0,8.75-1.6,14.4-4.79,16.97c-3.19,2.56-10.25,3.84-21.18,3.84
			c-12.4,0-20.03-2.03-22.88-6.08c-2.85-4.05-4.28-14.89-4.28-32.51c0-10.37,1.93-17.2,5.8-20.47c3.87-3.27,11.96-4.9,24.26-4.9
			c8.96,0,14.95,1.34,17.96,4.03c3.01,2.69,4.51,8.02,4.51,16l0.05,1.43h-11.97v-1.61c0-4.11-0.78-6.75-2.32-7.9
			c-1.55-1.15-5.09-1.73-10.61-1.73c-7.4,0-11.84,0.91-13.33,2.72c-1.49,1.81-2.23,7.18-2.23,16.11c0,12.03,0.67,19.15,2,21.36
			c1.34,2.21,5.66,3.31,12.96,3.31c5.92,0,9.77-0.61,11.53-1.84c1.77-1.23,2.65-3.93,2.65-8.1L772.51,499.02z"/>
		<path class="st0" d="M824.74,507.36h10.59v1.7c0,8.59-6.45,12.89-19.34,12.89c-8.75,0-14.47-1.49-17.17-4.47
			c-2.7-2.98-4.05-9.28-4.05-18.92c0-8.56,1.41-14.32,4.24-17.27c2.82-2.95,8.33-4.42,16.53-4.42c7.86,0,13.12,1.44,15.79,4.3
			c2.67,2.87,4.01,8.51,4.01,16.92v3.22h-29.79c-0.06,0.98-0.09,1.63-0.09,1.93c0,4.33,0.67,7.21,2,8.66c1.34,1.44,4,2.16,7.99,2.16
			c3.87,0,6.38-0.42,7.55-1.27C824.16,511.97,824.74,510.15,824.74,507.36z M824.83,494.88l-0.05-1.75c0-3.5-0.61-5.77-1.82-6.81
			c-1.21-1.04-3.85-1.57-7.9-1.57c-3.93,0-6.48,0.63-7.67,1.89c-1.18,1.26-1.77,4.01-1.77,8.24H824.83z"/>
		<path class="st0" d="M848.84,477.43h10.45l-0.41,7.41l0.23,0.05c2.06-5.31,6.66-7.97,13.81-7.97c10.41,0,15.61,4.85,15.61,14.55
			v29.97h-10.54v-26.52v-1.66l-0.23-3.08c-0.49-3.28-3.07-4.93-7.73-4.93c-7.09,0-10.64,3.36-10.64,10.08v26.11h-10.54V477.43z"/>
		<path class="st0" d="M931.96,477.43v8.01h-16.94v22.1c0,4.08,1.55,6.12,4.65,6.12c3.41,0,5.11-2.47,5.11-7.41v-1.75h8.98v2.21
			c0,2.03-0.06,3.76-0.18,5.2c-0.58,6.72-5.59,10.08-15.01,10.08c-9.39,0-14.09-4.31-14.09-12.94v-23.62h-5.71v-8.01h5.71v-9.85
			h10.54v9.85H931.96z"/>
		<path class="st0" d="M944.55,477.43h10.54l-0.64,6.17l0.23,0.05c2.52-4.6,6.48-6.91,11.88-6.91c7.73,0,11.6,4.88,11.6,14.64v3.08
			h-9.94c0.12-1.2,0.18-1.98,0.18-2.35c0-4.7-1.83-7.04-5.48-7.04c-5.22,0-7.83,3.48-7.83,10.45v25.92h-10.54V477.43z"/>
		<path class="st0" d="M1008.06,476.92c8.5,0,14.07,1.36,16.71,4.07c2.64,2.72,3.96,8.45,3.96,17.2c0,9.76-1.29,16.16-3.87,19.2
			c-2.58,3.04-8.01,4.56-16.3,4.56c-8.99,0-14.82-1.41-17.47-4.24c-2.66-2.82-3.98-9.04-3.98-18.65c0-9.24,1.3-15.24,3.91-18
			C993.63,478.3,999.31,476.92,1008.06,476.92z M1007.97,485.26c-4.39,0-7.18,0.79-8.38,2.37c-1.2,1.58-1.8,5.27-1.8,11.07
			c0,6.63,0.57,10.77,1.7,12.43c1.14,1.66,3.98,2.49,8.52,2.49c4.39,0,7.16-0.87,8.31-2.62c1.15-1.75,1.73-5.95,1.73-12.62
			c0-5.62-0.6-9.21-1.8-10.77C1015.06,486.04,1012.29,485.26,1007.97,485.26z"/>
		<path class="st0" d="M1070.85,521.45V458.6h25.32h3.13c8.5,0,14.23,1.48,17.2,4.44c2.96,2.96,4.44,8.68,4.44,17.15
			c0,8.41-1.41,14-4.24,16.76c-2.82,2.76-8.53,4.14-17.13,4.14l-2.76,0.05h-14.04v20.3H1070.85z M1082.77,491.1h13.58
			c5.4,0,8.83-0.62,10.29-1.86c1.46-1.24,2.19-4.18,2.19-8.82c0-5.31-0.61-8.6-1.82-9.88c-1.21-1.27-4.37-1.91-9.46-1.91h-14.78
			V491.1z"/>
		<path class="st0" d="M1161.29,507.36h10.59v1.7c0,8.59-6.45,12.89-19.34,12.89c-8.75,0-14.47-1.49-17.17-4.47
			c-2.7-2.98-4.05-9.28-4.05-18.92c0-8.56,1.41-14.32,4.24-17.27c2.82-2.95,8.33-4.42,16.53-4.42c7.86,0,13.12,1.44,15.79,4.3
			c2.67,2.87,4.01,8.51,4.01,16.92v3.22h-29.79c-0.06,0.98-0.09,1.63-0.09,1.93c0,4.33,0.67,7.21,2,8.66c1.34,1.44,4,2.16,7.99,2.16
			c3.87,0,6.38-0.42,7.55-1.27C1160.71,511.97,1161.29,510.15,1161.29,507.36z M1161.38,494.88l-0.05-1.75
			c0-3.5-0.61-5.77-1.82-6.81c-1.21-1.04-3.85-1.57-7.9-1.57c-3.93,0-6.48,0.63-7.67,1.89c-1.18,1.26-1.77,4.01-1.77,8.24H1161.38z"
			/>
		<path class="st0" d="M1224.57,458.6v62.85h-10.27l0.37-7.09l-0.18-0.05c-2.06,5.13-6.54,7.69-13.44,7.69
			c-6.97,0-11.58-1.59-13.84-4.77c-2.26-3.18-3.38-9.63-3.38-19.36c0-7.86,1.21-13.31,3.64-16.37c2.42-3.05,6.74-4.58,12.94-4.58
			c7.18,0,11.66,2.27,13.44,6.81l0.18-0.05V458.6H1224.57z M1203.9,485.26c-3.93,0-6.48,0.84-7.64,2.51
			c-1.17,1.67-1.75,5.27-1.75,10.8c0,6.38,0.58,10.5,1.75,12.34c1.17,1.84,3.77,2.76,7.83,2.76c4.24,0,6.94-0.9,8.13-2.72
			c1.18-1.81,1.77-5.99,1.77-12.52c0-5.4-0.65-8.95-1.96-10.64C1210.72,486.1,1208.01,485.26,1203.9,485.26z"/>
		<path class="st0" d="M1250.19,458.6v8.79h-10.54v-8.79H1250.19z M1250.19,477.43v44.02h-10.54v-44.02H1250.19z"/>
		<path class="st0" d="M1276.22,490.18h-10.77c0-5.28,1.23-8.81,3.68-10.59c2.46-1.78,7.32-2.67,14.59-2.67
			c7.92,0,13.28,1.09,16.07,3.27c2.79,2.18,4.19,6.34,4.19,12.48v28.78h-10.54l0.51-6.03l-0.28-0.05
			c-2.03,4.39-6.71,6.58-14.04,6.58c-10.65,0-15.98-4.53-15.98-13.58c0-9.15,5.45-13.72,16.35-13.72c7.27,0,11.69,1.67,13.26,5.02
			h0.18v-7.14c0-3.44-0.6-5.72-1.8-6.84c-1.2-1.12-3.65-1.68-7.37-1.68C1278.91,484.01,1276.22,486.07,1276.22,490.18z
			 M1283.27,501.74c-5.96,0-8.93,2.06-8.93,6.17c0,2.85,0.61,4.73,1.84,5.62c1.23,0.89,3.81,1.34,7.73,1.34
			c6.41,0,9.62-2.16,9.62-6.49C1293.53,503.95,1290.11,501.74,1283.27,501.74z M1293.44,458.46l3.82,7.09l-16.48,7.09l-2.3-4.37
			L1293.44,458.46z"/>
		<path class="st0" d="M1347.6,477.43v8.01h-16.94v22.1c0,4.08,1.55,6.12,4.65,6.12c3.41,0,5.11-2.47,5.11-7.41v-1.75h8.98v2.21
			c0,2.03-0.06,3.76-0.18,5.2c-0.58,6.72-5.59,10.08-15.01,10.08c-9.39,0-14.09-4.31-14.09-12.94v-23.62h-5.71v-8.01h5.71v-9.85
			h10.54v9.85H1347.6z"/>
		<path class="st0" d="M1360.19,477.43h10.54l-0.64,6.17l0.23,0.05c2.52-4.6,6.48-6.91,11.88-6.91c7.73,0,11.6,4.88,11.6,14.64v3.08
			h-9.94c0.12-1.2,0.18-1.98,0.18-2.35c0-4.7-1.83-7.04-5.48-7.04c-5.22,0-7.83,3.48-7.83,10.45v25.92h-10.54V477.43z"/>
		<path class="st0" d="M1414.91,458.6v8.79h-10.54v-8.79H1414.91z M1414.91,477.43v44.02h-10.54v-44.02H1414.91z"/>
		<path class="st0" d="M1458.02,504.64h10.5v1.52l-0.64,6.68c-1.29,6.08-7.58,9.12-18.88,9.12c-8.29,0-13.8-1.5-16.53-4.49
			c-2.73-2.99-4.1-9.02-4.1-18.07c0-8.84,1.37-14.79,4.1-17.86c2.73-3.07,8.04-4.6,15.93-4.6c7.61,0,12.77,1.11,15.47,3.34
			c2.7,2.23,4.05,6.45,4.05,12.68h-10.45c0-5.13-2.96-7.69-8.89-7.69c-4.21,0-6.85,0.81-7.92,2.44c-1.07,1.63-1.61,5.62-1.61,11.97
			c0,6.14,0.59,10,1.77,11.58c1.18,1.58,4.07,2.37,8.68,2.37c3.62,0,5.95-0.54,6.97-1.63
			C1457.5,510.89,1458.02,508.45,1458.02,504.64z"/>
		<path class="st0" d="M1500.3,476.92c8.5,0,14.07,1.36,16.71,4.07c2.64,2.72,3.96,8.45,3.96,17.2c0,9.76-1.29,16.16-3.87,19.2
			c-2.58,3.04-8.01,4.56-16.3,4.56c-8.99,0-14.82-1.41-17.47-4.24c-2.66-2.82-3.98-9.04-3.98-18.65c0-9.24,1.3-15.24,3.91-18
			C1485.88,478.3,1491.55,476.92,1500.3,476.92z M1500.21,485.26c-4.39,0-7.18,0.79-8.38,2.37c-1.2,1.58-1.8,5.27-1.8,11.07
			c0,6.63,0.57,10.77,1.7,12.43c1.14,1.66,3.98,2.49,8.52,2.49c4.39,0,7.16-0.87,8.31-2.62c1.15-1.75,1.73-5.95,1.73-12.62
			c0-5.62-0.6-9.21-1.8-10.77C1507.3,486.04,1504.54,485.26,1500.21,485.26z"/>
		<path class="st0" d="M820.16,542.97v62.85h-10.27l0.37-7.09l-0.18-0.05c-2.06,5.13-6.54,7.69-13.44,7.69
			c-6.97,0-11.58-1.59-13.84-4.77c-2.26-3.18-3.38-9.63-3.38-19.36c0-7.86,1.21-13.31,3.64-16.37c2.42-3.05,6.74-4.58,12.94-4.58
			c7.18,0,11.66,2.27,13.44,6.81l0.18-0.05v-25.09H820.16z M799.49,569.62c-3.93,0-6.48,0.84-7.64,2.51
			c-1.17,1.67-1.75,5.27-1.75,10.8c0,6.38,0.58,10.5,1.75,12.34c1.17,1.84,3.77,2.76,7.83,2.76c4.24,0,6.94-0.9,8.13-2.72
			c1.18-1.81,1.77-5.99,1.77-12.52c0-5.4-0.65-8.95-1.96-10.64C806.31,570.47,803.6,569.62,799.49,569.62z"/>
		<path class="st0" d="M863.6,591.72h10.59v1.7c0,8.59-6.45,12.89-19.34,12.89c-8.75,0-14.47-1.49-17.17-4.47
			c-2.7-2.98-4.05-9.28-4.05-18.92c0-8.56,1.41-14.32,4.24-17.26c2.82-2.95,8.33-4.42,16.53-4.42c7.86,0,13.12,1.44,15.79,4.3
			c2.67,2.87,4.01,8.51,4.01,16.92v3.22H844.4c-0.06,0.98-0.09,1.63-0.09,1.93c0,4.33,0.67,7.21,2,8.66c1.34,1.44,4,2.16,7.99,2.16
			c3.87,0,6.38-0.42,7.55-1.27C863.01,596.34,863.6,594.52,863.6,591.72z M863.69,579.25l-0.05-1.75c0-3.5-0.61-5.77-1.82-6.81
			c-1.21-1.04-3.85-1.57-7.9-1.57c-3.93,0-6.48,0.63-7.67,1.89c-1.18,1.26-1.77,4.01-1.77,8.24H863.69z"/>
		<path class="st0" d="M898.24,542.97v62.85h-10.54v-62.85H898.24z"/>
		<path class="st0" d="M980.73,583.39h11.97v2.16c0,8.75-1.6,14.4-4.79,16.97c-3.19,2.56-10.25,3.84-21.18,3.84
			c-12.4,0-20.03-2.03-22.88-6.08c-2.85-4.05-4.28-14.89-4.28-32.51c0-10.37,1.93-17.2,5.8-20.47c3.87-3.27,11.96-4.9,24.26-4.9
			c8.96,0,14.95,1.34,17.96,4.03c3.01,2.69,4.51,8.02,4.51,16l0.05,1.43h-11.97v-1.61c0-4.11-0.78-6.75-2.32-7.9
			c-1.55-1.15-5.09-1.73-10.61-1.73c-7.4,0-11.84,0.91-13.33,2.72c-1.49,1.81-2.23,7.18-2.23,16.11c0,12.03,0.67,19.15,2,21.36
			c1.34,2.21,5.66,3.31,12.96,3.31c5.92,0,9.77-0.61,11.53-1.84c1.77-1.23,2.65-3.93,2.65-8.1L980.73,583.39z"/>
		<path class="st0" d="M1004.88,561.8h10.54l-0.64,6.17l0.23,0.05c2.52-4.6,6.48-6.91,11.88-6.91c7.73,0,11.6,4.88,11.6,14.64v3.09
			h-9.94c0.12-1.2,0.18-1.98,0.18-2.35c0-4.7-1.83-7.04-5.48-7.04c-5.22,0-7.83,3.48-7.83,10.45v25.92h-10.54V561.8z"/>
		<path class="st0" d="M1077.41,591.72H1088v1.7c0,8.59-6.45,12.89-19.34,12.89c-8.75,0-14.47-1.49-17.17-4.47
			c-2.7-2.98-4.05-9.28-4.05-18.92c0-8.56,1.41-14.32,4.24-17.26c2.82-2.95,8.33-4.42,16.53-4.42c7.86,0,13.12,1.44,15.79,4.3
			c2.67,2.87,4.01,8.51,4.01,16.92v3.22h-29.79c-0.06,0.98-0.09,1.63-0.09,1.93c0,4.33,0.67,7.21,2,8.66c1.34,1.44,4,2.16,7.99,2.16
			c3.87,0,6.38-0.42,7.55-1.27C1076.83,596.34,1077.41,594.52,1077.41,591.72z M1077.5,579.25l-0.05-1.75c0-3.5-0.61-5.77-1.82-6.81
			c-1.21-1.04-3.85-1.57-7.9-1.57c-3.93,0-6.48,0.63-7.67,1.89c-1.18,1.26-1.77,4.01-1.77,8.24H1077.5z"/>
		<path class="st0" d="M1129.55,589.01h10.5v1.52l-0.64,6.68c-1.29,6.08-7.58,9.12-18.88,9.12c-8.29,0-13.8-1.5-16.53-4.49
			c-2.73-2.99-4.1-9.02-4.1-18.07c0-8.84,1.37-14.8,4.1-17.86c2.73-3.07,8.04-4.6,15.93-4.6c7.61,0,12.77,1.11,15.47,3.34
			c2.7,2.23,4.05,6.45,4.05,12.69h-10.45c0-5.13-2.96-7.69-8.89-7.69c-4.21,0-6.85,0.81-7.92,2.44c-1.07,1.63-1.61,5.62-1.61,11.97
			c0,6.14,0.59,10,1.77,11.58c1.18,1.58,4.07,2.37,8.68,2.37c3.62,0,5.95-0.54,6.97-1.63
			C1129.03,595.26,1129.55,592.81,1129.55,589.01z"/>
		<path class="st0" d="M1163.04,542.97v8.79h-10.54v-8.79H1163.04z M1163.04,561.8v44.02h-10.54V561.8H1163.04z"/>
		<path class="st0" d="M1178.11,561.8h10.54l-0.28,6.77l0.23,0.05c2.15-4.88,6.63-7.32,13.44-7.32c7.95,0,12.37,2.72,13.26,8.15
			h0.18c2.06-5.43,6.58-8.15,13.58-8.15c10.19,0,15.29,5.13,15.29,15.38v29.14h-10.54v-26.84c0-6.23-2.56-9.35-7.69-9.35
			c-6.42,0-9.62,3.48-9.62,10.45v25.74h-10.54v-27.26c0-3.65-0.48-6.05-1.45-7.21c-0.97-1.15-3.02-1.73-6.15-1.73
			c-6.48,0-9.72,3.56-9.72,10.68v25.51h-10.54V561.8z"/>
		<path class="st0" d="M1270.4,542.97v8.79h-10.54v-8.79H1270.4z M1270.4,561.8v44.02h-10.54V561.8H1270.4z"/>
		<path class="st0" d="M1313.83,591.72h10.59v1.7c0,8.59-6.45,12.89-19.34,12.89c-8.75,0-14.47-1.49-17.17-4.47
			c-2.7-2.98-4.05-9.28-4.05-18.92c0-8.56,1.41-14.32,4.24-17.26c2.82-2.95,8.33-4.42,16.53-4.42c7.86,0,13.12,1.44,15.79,4.3
			c2.67,2.87,4.01,8.51,4.01,16.92v3.22h-29.79c-0.06,0.98-0.09,1.63-0.09,1.93c0,4.33,0.67,7.21,2,8.66c1.34,1.44,4,2.16,7.99,2.16
			c3.87,0,6.38-0.42,7.55-1.27C1313.25,596.34,1313.83,594.52,1313.83,591.72z M1313.92,579.25l-0.05-1.75
			c0-3.5-0.61-5.77-1.82-6.81c-1.21-1.04-3.85-1.57-7.9-1.57c-3.93,0-6.48,0.63-7.67,1.89c-1.18,1.26-1.77,4.01-1.77,8.24H1313.92z"
			/>
		<path class="st0" d="M1337.93,561.8h10.45l-0.41,7.41l0.23,0.05c2.06-5.31,6.66-7.96,13.81-7.96c10.41,0,15.61,4.85,15.61,14.55
			v29.97h-10.54v-26.52v-1.66l-0.23-3.08c-0.49-3.28-3.07-4.93-7.73-4.93c-7.09,0-10.64,3.36-10.64,10.08v26.1h-10.54V561.8z"/>
		<path class="st0" d="M1421.05,561.8v8.01h-16.94v22.1c0,4.08,1.55,6.12,4.65,6.12c3.41,0,5.11-2.47,5.11-7.41v-1.75h8.98v2.21
			c0,2.03-0.06,3.76-0.18,5.2c-0.58,6.72-5.59,10.08-15.01,10.08c-9.39,0-14.09-4.31-14.09-12.94v-23.62h-5.71v-8.01h5.71v-9.85
			h10.54v9.85H1421.05z"/>
		<path class="st0" d="M1452.7,561.29c8.5,0,14.07,1.36,16.71,4.07c2.64,2.72,3.96,8.45,3.96,17.2c0,9.76-1.29,16.16-3.87,19.2
			c-2.58,3.04-8.01,4.56-16.3,4.56c-8.99,0-14.82-1.41-17.47-4.24c-2.66-2.82-3.98-9.04-3.98-18.65c0-9.24,1.3-15.24,3.91-18
			C1438.27,562.67,1443.95,561.29,1452.7,561.29z M1452.61,569.62c-4.39,0-7.18,0.79-8.38,2.37c-1.2,1.58-1.8,5.27-1.8,11.07
			c0,6.63,0.57,10.77,1.7,12.43c1.14,1.66,3.98,2.49,8.52,2.49c4.39,0,7.16-0.88,8.31-2.62c1.15-1.75,1.73-5.96,1.73-12.62
			c0-5.62-0.6-9.21-1.8-10.77C1459.7,570.41,1456.94,569.62,1452.61,569.62z"/>
	</g>
</g>
</svg>
